<svg width="158" height="16" viewBox="0 0 158 16" fill="none" xmlns="http://www.w3.org/2000/svg">
<path d="M116 7C115.448 7 115 7.44772 115 8C115 8.55228 115.448 9 116 9V7ZM157.707 8.70711C158.098 8.31658 158.098 7.68342 157.707 7.29289L151.343 0.928932C150.953 0.538408 150.319 0.538408 149.929 0.928932C149.538 1.31946 149.538 1.95262 149.929 2.34315L155.586 8L149.929 13.6569C149.538 14.0474 149.538 14.6805 149.929 15.0711C150.319 15.4616 150.953 15.4616 151.343 15.0711L157.707 8.70711ZM116 9L157 9V7L116 7V9Z" fill="#151516"/>
<path d="M42 9C42.5523 9 43 8.55228 43 8C43 7.44772 42.5523 7 42 7L42 9ZM0.292893 7.29289C-0.0976295 7.68341 -0.0976296 8.31658 0.292892 8.7071L6.65685 15.0711C7.04738 15.4616 7.68054 15.4616 8.07107 15.0711C8.46159 14.6805 8.46159 14.0474 8.07107 13.6569L2.41422 8L8.07107 2.34314C8.46159 1.95262 8.46159 1.31945 8.07107 0.928929C7.68054 0.538405 7.04738 0.538405 6.65685 0.928929L0.292893 7.29289ZM42 7L1 7L1 9L42 9L42 7Z" fill="#151516"/>
<circle cx="60.5" cy="7.5" r="4.5" fill="#6B7073"/>
<circle cx="81" cy="8" r="3" fill="#6B7073" fill-opacity="0.5"/>
<circle cx="100" cy="8" r="3" fill="#6B7073" fill-opacity="0.5"/>
</svg>
