<?xml version="1.0" standalone="no"?>
<!DOCTYPE svg PUBLIC "-//W3C//DTD SVG 20010904//EN"
 "http://www.w3.org/TR/2001/REC-SVG-20010904/DTD/svg10.dtd">
<svg version="1.0" xmlns="http://www.w3.org/2000/svg"
 width="16.000000pt" height="158.000000pt" viewBox="0 0 16.000000 158.000000"
 preserveAspectRatio="xMidYMid meet">

<g transform="translate(0.000000,158.000000) scale(0.100000,-0.100000)"
fill="#000000" stroke="none">
<path d="M40 1545 c-38 -39 -34 -61 5 -25 l25 23 0 -196 c0 -125 4 -197 10
-197 6 0 10 72 10 197 l0 196 25 -23 c39 -36 43 -14 5 25 -19 19 -37 35 -40
35 -3 0 -21 -16 -40 -35z"/>
<path d="M50 630 c-16 -16 -18 -25 -10 -39 12 -24 30 -31 51 -20 26 13 31 40
13 60 -22 24 -29 24 -54 -1z"/>
<path d="M70 233 l0 -196 -25 23 c-41 38 -42 13 -2 -28 l37 -37 37 37 c40 41
39 66 -2 28 l-25 -23 0 196 c0 125 -4 197 -10 197 -6 0 -10 -72 -10 -197z"/>
</g>
</svg>
